<svg xmlns="http://www.w3.org/2000/svg" viewBox="0 0 24 24" fill="currentColor" width="24" height="24">
  <!-- Oscar statuette -->
  <!-- Base -->
  <rect x="8" y="18" width="8" height="2" fill="currentColor"/>
  <!-- Pedestal -->
  <rect x="9.5" y="16" width="5" height="2" fill="currentColor"/>
  <!-- Lower body -->
  <path d="M12 10C13.1 10 14 10.9 14 12L14 16L10 16L10 12C10 10.9 10.9 10 12 10Z" fill="currentColor"/>
  <!-- Upper body/arms -->
  <path d="M12 8C13.66 8 15 9.34 15 11L15 13L9 13L9 11C9 9.34 10.34 8 12 8Z" fill="currentColor"/>
  <!-- Head -->
  <circle cx="12" cy="6" r="2" fill="currentColor"/>
  <!-- Arms extending -->
  <rect x="6" y="11" width="2" height="2" fill="currentColor"/>
  <rect x="16" y="11" width="2" height="2" fill="currentColor"/>
</svg>